<?xml version="1.0" standalone="no"?>
<!DOCTYPE svg PUBLIC "-//W3C//DTD SVG 20010904//EN"
 "http://www.w3.org/TR/2001/REC-SVG-20010904/DTD/svg10.dtd">
<svg version="1.0" xmlns="http://www.w3.org/2000/svg"
 width="394.000000pt" height="394.000000pt" viewBox="0 0 394.000000 394.000000"
 preserveAspectRatio="xMidYMid meet">
<metadata>
Created by potrace 1.11, written by Peter Selinger 2001-2013
</metadata>
<g transform="translate(0.000000,394.000000) scale(0.100000,-0.100000)"
fill="#000000" stroke="none">
<path d="M1452 3768 c-31 -8 -32 -10 -25 -51 9 -62 9 -71 -2 -72 -5 -1 -21 -5
-33 -9 -20 -7 -23 -13 -18 -34 4 -15 7 -33 8 -40 1 -9 12 -12 34 -9 17 3 36 2
41 -2 5 -3 14 -33 21 -66 7 -33 15 -69 17 -80 3 -11 9 -42 15 -70 16 -75 21
-80 64 -65 45 14 45 -4 -9 240 -2 8 -6 27 -10 42 -6 25 -4 28 33 38 39 10 40
12 32 40 -5 17 -9 34 -10 38 0 4 -18 6 -39 4 -40 -2 -39 -4 -56 61 -2 4 -3 13
-4 21 -2 20 -21 24 -59 14z"/>
<path d="M1955 3637 c-38 -12 -107 -62 -98 -70 3 -4 2 -7 -4 -7 -5 0 -10 -6
-11 -12 -1 -7 -5 -30 -8 -51 -9 -54 3 -101 34 -135 23 -26 81 -63 97 -62 3 0
6 0 8 -1 14 -5 59 -3 63 2 5 8 87 5 102 -5 17 -10 26 14 28 74 1 30 5 101 7
158 4 74 2 102 -6 103 -7 0 -25 2 -40 3 -15 1 -33 -2 -40 -6 -6 -4 -16 -3 -22
2 -17 13 -78 18 -110 7z m92 -97 c27 -18 38 -72 21 -108 -19 -39 -57 -55 -96
-40 -35 13 -43 26 -49 79 -3 31 1 40 26 62 32 27 62 29 98 7z"/>
<path d="M2412 3526 c-5 -11 -14 -32 -20 -46 -6 -14 -20 -47 -32 -75 -37 -86
-26 -144 36 -191 20 -16 44 -30 53 -32 22 -6 93 -6 110 -1 14 4 71 55 71 64 0
2 5 16 12 32 6 15 12 30 13 33 0 3 7 16 15 30 7 14 13 27 13 30 0 3 3 15 8 28
14 35 11 41 -18 48 -16 4 -34 11 -40 17 -9 6 -15 4 -19 -9 -4 -11 -13 -34 -20
-52 -7 -18 -13 -33 -12 -35 3 -6 -46 -93 -55 -99 -18 -11 -69 1 -83 19 -16 20
-12 57 10 106 53 115 53 128 2 144 -30 9 -35 8 -44 -11z"/>
<path d="M1101 3431 c-29 -25 -34 -36 -35 -73 0 -28 9 -61 25 -93 28 -55 29
-77 4 -105 -16 -18 -16 -21 5 -55 12 -19 24 -35 27 -35 3 0 18 8 34 17 37 22
61 81 49 122 -5 17 -8 32 -8 34 0 1 -7 19 -16 41 -20 48 -21 85 -2 92 16 6 12
23 -14 62 -19 29 -28 28 -69 -7z"/>
<path d="M2887 3247 c-30 -7 -49 -24 -99 -86 -34 -42 -68 -84 -76 -93 -13 -16
-11 -21 18 -48 17 -16 36 -27 41 -25 5 3 33 39 64 79 30 41 62 76 70 79 7 3
29 2 47 -4 20 -5 34 -5 36 0 2 5 12 19 22 32 19 21 19 23 2 35 -9 7 -23 14
-29 14 -7 0 -13 4 -13 9 0 14 -41 18 -83 8z"/>
<path d="M761 3152 c-75 -12 -141 -91 -145 -175 -3 -58 15 -94 70 -140 39 -33
125 -44 160 -20 13 8 24 13 24 10 0 -15 53 45 69 78 31 65 13 171 -28 157 -31
-10 -51 -42 -46 -73 6 -35 -21 -90 -41 -82 -9 3 -10 11 -3 30 5 14 12 40 14
57 3 17 9 49 15 71 11 46 13 81 3 72 -3 -4 -11 -3 -17 2 -16 12 -47 17 -75 13z
m-14 -129 c-19 -96 -27 -113 -41 -77 -10 26 -7 48 10 72 18 26 35 29 31 5z"/>
<path d="M3068 2977 c-117 -54 -139 -193 -46 -291 16 -16 28 -35 28 -42 0 -8
4 -14 9 -14 5 0 11 -9 14 -20 7 -26 18 -22 145 59 56 36 111 70 122 76 11 5
20 13 20 18 0 14 -21 51 -42 74 -11 12 -17 26 -13 32 3 6 1 11 -4 11 -6 0 -11
6 -11 13 0 19 -29 49 -70 73 -40 24 -112 29 -152 11z m135 -108 c13 -17 17
-33 14 -56 -12 -73 -96 -101 -144 -47 -31 35 -29 70 7 106 26 25 36 29 67 25
23 -3 45 -15 56 -28z"/>
<path d="M364 2739 c-46 -17 -84 -78 -145 -232 l-19 -47 43 -19 c92 -40 102
-44 112 -46 6 -2 33 -13 60 -25 101 -45 164 -70 176 -70 4 0 11 10 15 23 4 12
11 25 16 28 12 8 -1 39 -18 39 -7 0 -29 9 -49 20 -19 11 -35 17 -35 14 0 -2
-10 1 -22 8 -13 7 -25 13 -28 14 -22 5 -150 63 -150 68 0 2 9 29 21 59 23 60
58 87 79 62 17 -21 19 -47 4 -76 -7 -15 -10 -29 -7 -33 4 -3 1 -6 -5 -6 -18 0
-2 -29 19 -35 10 -3 28 -8 39 -11 13 -3 20 -1 20 8 1 34 19 42 102 44 46 1 88
3 93 3 13 1 35 58 29 74 -3 8 -33 12 -89 11 -79 0 -104 6 -103 29 0 4 -5 20
-11 36 -20 46 -98 79 -147 60z"/>
<path d="M3348 2505 c-3 -4 -47 -13 -88 -20 -8 -1 -26 -7 -40 -12 -14 -6 -29
-9 -33 -6 -17 10 -36 -18 -28 -40 9 -24 11 -31 11 -47 0 -6 10 -8 23 -5 95 21
116 26 150 30 37 6 70 -8 74 -30 1 -5 4 -17 8 -26 15 -38 -57 -74 -185 -93
-31 -4 -40 -17 -33 -44 3 -15 6 -33 6 -40 0 -12 21 -12 85 3 12 3 32 7 45 10
12 2 34 7 49 11 15 3 31 6 35 7 16 3 55 43 69 69 40 77 -6 199 -83 222 -33 10
-61 15 -65 11z"/>
<path d="M3539 1991 c-2 -33 -4 -39 -12 -47 -8 -9 -57 -12 -57 -4 0 10 -235 7
-242 -4 -12 -17 -9 -64 4 -72 7 -5 58 -10 113 -12 199 -7 179 -2 185 -47 5
-38 7 -40 43 -42 20 -2 38 2 38 7 1 6 3 15 4 20 1 6 3 19 4 30 1 17 8 19 52
18 64 -1 71 9 60 84 -1 4 -25 8 -53 10 l-53 3 0 35 c0 34 -2 35 -43 38 -36 3
-42 0 -43 -17z"/>
<path d="M376 1542 c-4 -7 -15 -12 -25 -12 -35 0 -43 -24 -24 -64 29 -58 92
-76 166 -47 44 17 84 14 100 -9 13 -19 67 -26 67 -9 0 4 9 9 21 12 l21 6 -23
41 c-13 23 -29 46 -37 52 -18 16 -108 17 -157 3 -46 -14 -63 -10 -86 18 -11
14 -18 17 -23 9z"/>
<path d="M664 1217 c-25 -15 -164 -143 -164 -151 0 -8 51 -56 59 -56 6 0 28
17 50 38 84 80 102 93 124 89 37 -5 56 -21 61 -53 5 -29 0 -37 -69 -100 -41
-38 -75 -72 -75 -76 0 -13 43 -58 54 -58 6 0 42 29 81 65 58 53 75 63 100 61
35 -5 65 -39 59 -69 -2 -12 -38 -53 -79 -91 l-76 -69 27 -29 c15 -15 33 -28
39 -28 12 0 175 154 176 167 0 4 2 17 4 28 12 62 -38 145 -102 171 -19 8 -36
22 -39 32 -13 38 -30 68 -56 95 -16 16 -28 26 -28 22 0 -3 -10 1 -22 9 -27 19
-94 20 -124 3z"/>
<path d="M2955 1178 c-16 -18 -29 -33 -28 -36 1 -2 17 -15 35 -30 18 -15 51
-45 74 -67 22 -22 61 -58 87 -80 26 -22 47 -45 47 -50 0 -13 -73 -90 -92 -97
-8 -3 -22 0 -32 8 -23 17 -16 53 19 90 32 35 31 48 -5 74 -25 18 -31 19 -36 6
-13 -34 -62 -28 -174 23 -24 11 -44 2 -68 -32 -15 -22 -18 -33 -10 -35 7 -2
48 -17 91 -34 l79 -31 -5 -36 c-10 -84 71 -152 153 -127 30 9 170 133 170 150
0 3 10 16 21 27 l21 21 -65 62 c-36 33 -100 93 -142 131 -43 39 -84 76 -91 83
-16 15 -14 16 -49 -20z"/>
<path d="M2533 820 c-18 -4 -49 -20 -69 -35 -53 -41 -75 -96 -65 -167 1 -7 40
-4 49 3 1 1 5 2 10 3 16 3 32 18 27 26 -14 23 52 96 71 78 3 -3 -20 -44 -50
-92 -31 -47 -56 -94 -56 -104 0 -12 16 -26 43 -40 36 -18 49 -19 91 -11 88 16
144 74 154 157 12 107 -98 205 -205 182z m113 -196 c-6 -24 -52 -62 -62 -51
-4 3 3 19 15 35 12 17 21 33 21 36 0 4 6 13 13 20 10 12 13 12 15 -1 2 -8 1
-25 -2 -39z"/>
<path d="M1255 792 c-2 -2 -9 -5 -17 -6 -29 -6 -68 -30 -68 -43 0 -7 -5 -13
-11 -13 -19 0 8 -27 42 -41 24 -9 33 -9 38 0 11 17 63 21 91 6 l23 -13 -22 -7
c-13 -4 -39 -8 -59 -10 -130 -9 -164 -24 -157 -67 7 -39 27 -88 38 -88 6 0 20
-8 31 -18 74 -64 204 -43 248 41 13 23 23 47 24 52 1 6 3 13 4 18 6 18 6 33
-1 42 -8 11 -9 16 -9 41 0 9 -18 34 -40 55 -36 36 -51 44 -72 40 -5 0 -8 3 -8
7 0 7 -68 11 -75 4z m80 -240 c-14 -7 -37 -11 -53 -8 -15 2 -30 5 -34 5 -5 1
-8 7 -8 14 0 9 13 13 40 12 22 -1 46 2 52 6 7 5 16 3 20 -4 4 -7 -2 -17 -17
-25z"/>
<path d="M1686 663 c-4 -10 -9 -38 -12 -63 -3 -25 -7 -56 -9 -70 -3 -14 -8
-47 -10 -75 -3 -27 -8 -62 -10 -77 -4 -18 -1 -28 7 -28 7 -1 29 -3 48 -6 29
-4 36 -2 36 13 2 26 13 125 18 149 2 11 7 53 11 92 6 72 6 72 -19 72 -13 0
-31 3 -39 6 -8 3 -17 -2 -21 -13z"/>
<path d="M2088 672 c-41 -5 -52 -24 -63 -112 -2 -19 -7 -53 -10 -75 -3 -22 -7
-66 -10 -98 l-5 -58 27 5 c16 2 36 5 45 5 17 1 19 7 33 95 2 16 7 31 10 35 7
7 28 -26 32 -50 1 -8 8 -27 15 -41 11 -20 19 -24 43 -21 17 2 36 5 43 5 6 1
12 5 12 9 0 17 -65 174 -75 181 -5 4 -7 8 -2 8 10 0 -38 94 -55 106 -7 5 -25
8 -40 6z"/>
<path d="M1626 235 c-9 -36 0 -62 24 -68 22 -6 60 2 61 12 0 3 2 15 4 26 6 30
-8 45 -47 51 -32 6 -36 4 -42 -21z"/>
</g>
</svg>
